<?xml version="1.0" encoding="UTF-8" standalone="no"?>
<!DOCTYPE svg PUBLIC "-//W3C//DTD SVG 1.1//EN" "http://www.w3.org/Graphics/SVG/1.1/DTD/svg11.dtd">
<svg width="100%" height="100%" viewBox="0 0 629 299" version="1.1" xmlns="http://www.w3.org/2000/svg" xmlns:xlink="http://www.w3.org/1999/xlink" xml:space="preserve" xmlns:serif="http://www.serif.com/" style="fill-rule:evenodd;clip-rule:evenodd;stroke-linejoin:round;stroke-miterlimit:2;">
    <g transform="matrix(1,0,0,1,-1238.687642,-354.048437)">
        <g transform="matrix(1,0,0,1,1053.184688,3.391524)">
            <g transform="matrix(4.148419,0,0,3.111314,-710.555567,-844.087782)">
                <path d="M240,384L240,448C240,465.661 229.246,480 216,480L216,384L240,384Z" style="fill:rgb(39,39,42);"/>
            </g>
        </g>
        <g transform="matrix(1,0,0,1,1053.184688,3.391524)">
            <g transform="matrix(4.148419,0,0,2.07421,-710.555567,-346.277492)">
                <path d="M264,432L264,480L240,480C240,453.508 250.754,432 264,432Z" style="fill:rgb(39,39,42);"/>
            </g>
        </g>
        <g transform="matrix(2.355225,0,0,2.355225,802.140198,-637.218126)">
            <path d="M341.12,481.024C337.408,481.024 334.187,480.224 331.456,478.624C328.725,477.024 326.603,474.795 325.088,471.936C323.573,469.077 322.816,465.813 322.816,462.144C322.816,458.432 323.573,455.147 325.088,452.288C326.603,449.429 328.725,447.189 331.456,445.568C334.187,443.947 337.408,443.136 341.12,443.136C344.832,443.136 348.053,443.947 350.784,445.568C353.515,447.189 355.637,449.429 357.152,452.288C358.667,455.147 359.424,458.432 359.424,462.144C359.424,465.813 358.667,469.077 357.152,471.936C355.637,474.795 353.515,477.024 350.784,478.624C348.053,480.224 344.832,481.024 341.12,481.024ZM341.12,474.752C343.467,474.752 345.472,474.219 347.136,473.152C348.8,472.085 350.08,470.603 350.976,468.704C351.872,466.805 352.32,464.619 352.32,462.144C352.32,459.584 351.872,457.344 350.976,455.424C350.08,453.504 348.8,452.021 347.136,450.976C345.472,449.931 343.467,449.408 341.12,449.408C338.773,449.408 336.768,449.931 335.104,450.976C333.44,452.021 332.16,453.504 331.264,455.424C330.368,457.344 329.92,459.584 329.92,462.144C329.92,464.619 330.368,466.805 331.264,468.704C332.16,470.603 333.44,472.085 335.104,473.152C336.768,474.219 338.773,474.752 341.12,474.752Z" style="fill:rgb(39,39,42);fill-rule:nonzero;"/>
        </g>
        <g transform="matrix(2.355225,0,0,2.355225,802.140198,-637.218126)">
            <path d="M408.064,444.16L414.976,444.16L414.976,480L408.064,480L408.064,444.16ZM407.68,432L415.424,432L415.424,439.872L407.68,439.872L407.68,432Z" style="fill:rgb(39,39,42);fill-rule:nonzero;"/>
        </g>
        <g transform="matrix(2.355225,0,0,2.355225,802.140198,-637.218126)">
            <path d="M429.248,468.672C429.461,470.848 430.4,472.469 432.064,473.536C433.728,474.603 435.712,475.136 438.016,475.136C440.277,475.136 442.101,474.699 443.488,473.824C444.875,472.949 445.568,471.616 445.568,469.824C445.568,468.715 445.152,467.872 444.32,467.296C443.488,466.72 442.4,466.261 441.056,465.92C439.712,465.579 438.24,465.28 436.64,465.024C435.04,464.768 433.429,464.448 431.808,464.064C430.187,463.68 428.704,463.115 427.36,462.368C426.016,461.621 424.939,460.608 424.128,459.328C423.317,458.048 422.912,456.384 422.912,454.336C422.912,452.416 423.509,450.592 424.704,448.864C425.899,447.136 427.605,445.749 429.824,444.704C432.043,443.659 434.603,443.136 437.504,443.136C440.107,443.136 442.485,443.659 444.64,444.704C446.795,445.749 448.533,447.189 449.856,449.024C451.179,450.859 451.84,452.992 451.84,455.424L445.248,455.424C445.077,453.248 444.235,451.637 442.72,450.592C441.205,449.547 439.381,449.024 437.248,449.024C434.773,449.024 432.907,449.525 431.648,450.528C430.389,451.531 429.76,452.8 429.76,454.336C429.76,455.488 430.165,456.384 430.976,457.024C431.787,457.664 432.864,458.165 434.208,458.528C435.552,458.891 437.035,459.189 438.656,459.424C440.277,459.659 441.888,459.968 443.488,460.352C445.088,460.736 446.56,461.28 447.904,461.984C449.248,462.688 450.336,463.669 451.168,464.928C452,466.187 452.416,467.819 452.416,469.824C452.416,472.085 451.808,474.048 450.592,475.712C449.376,477.376 447.68,478.677 445.504,479.616C443.328,480.555 440.725,481.024 437.696,481.024C434.88,481.024 432.331,480.48 430.048,479.392C427.765,478.304 425.952,476.832 424.608,474.976C423.264,473.12 422.549,471.019 422.464,468.672L429.248,468.672Z" style="fill:rgb(39,39,42);fill-rule:nonzero;"/>
        </g>
        <g transform="matrix(2.355225,0,0,2.355225,802.140198,-637.218126)">
            <g transform="matrix(0.424588,0,0,0.424588,-340.578989,270.55508)">
                <path d="M1726.594,488.768L1726.594,478.827C1724.284,482.745 1721.219,485.908 1717.4,488.316C1712.777,491.23 1706.798,492.687 1699.462,492.687C1691.724,492.687 1685.017,490.928 1679.339,487.411C1673.661,483.894 1669.265,478.895 1666.15,472.413C1663.035,465.932 1661.477,458.37 1661.477,449.728C1661.477,440.985 1663.035,433.373 1666.15,426.891C1669.265,420.41 1673.661,415.385 1679.339,411.818C1685.017,408.251 1691.724,406.467 1699.462,406.467C1709.813,406.467 1717.651,409.532 1722.977,415.662C1724.312,417.199 1725.518,418.887 1726.594,420.727L1726.594,408.879L1742.874,408.879L1742.874,488.768C1742.874,496.707 1741.266,503.439 1738.05,508.966C1734.834,514.493 1730.438,518.689 1724.861,521.553C1719.284,524.417 1712.827,525.849 1705.492,525.849C1696.548,525.849 1689.313,524.442 1683.786,521.628C1678.259,518.814 1674.089,515.172 1671.275,510.7C1668.461,506.228 1666.652,501.631 1665.848,496.908L1682.731,496.908C1683.736,501.832 1686.198,505.424 1690.117,507.685C1694.036,509.946 1699.161,511.077 1705.492,511.077C1709.712,511.077 1713.405,510.298 1716.57,508.74C1719.736,507.183 1722.198,504.771 1723.956,501.505C1725.715,498.239 1726.594,493.993 1726.594,488.768ZM1726.594,449.728C1726.594,441.086 1724.534,434.177 1720.414,429.002C1716.294,423.827 1710.064,421.239 1701.723,421.239C1694.387,421.239 1688.634,423.726 1684.464,428.7C1680.294,433.674 1678.209,440.684 1678.209,449.728C1678.209,458.571 1680.294,465.479 1684.464,470.454C1688.634,475.428 1694.387,477.915 1701.723,477.915C1710.064,477.915 1716.294,475.353 1720.414,470.228C1724.534,465.103 1726.594,458.269 1726.594,449.728Z" style="fill:rgb(39,39,42);"/>
            </g>
        </g>
        <g transform="matrix(2.355225,0,0,2.355225,802.140198,-637.218126)">
            <g transform="matrix(0.424588,0,0,0.424588,-340.578989,270.55508)">
                <path d="M1525.967,593.985L1507.577,593.985L1507.577,630.915L1490.996,630.915L1490.996,525.401L1525.967,525.401C1535.312,525.401 1543.427,526.507 1550.31,528.717C1557.194,530.928 1562.52,534.521 1566.288,539.495C1570.057,544.469 1571.941,551.177 1571.941,559.618C1571.941,567.858 1570.057,574.515 1566.288,579.59C1562.52,584.665 1557.194,588.333 1550.31,590.594C1543.427,592.855 1535.312,593.985 1525.967,593.985ZM1507.577,539.872L1507.577,579.515L1525.967,579.515C1531.996,579.515 1537.146,578.962 1541.417,577.857C1545.688,576.751 1548.954,574.742 1551.215,571.827C1553.476,568.913 1554.606,564.843 1554.606,559.618C1554.606,554.292 1553.476,550.197 1551.215,547.333C1548.954,544.469 1545.688,542.509 1541.417,541.454C1537.146,540.399 1531.996,539.872 1525.967,539.872L1507.577,539.872Z" style="fill:rgb(39,39,42);"/>
            </g>
        </g>
        <g transform="matrix(2.355225,0,0,2.355225,802.140198,-637.218126)">
            <g transform="matrix(0.424588,0,0,0.424588,-340.578989,270.55508)">
                <path d="M1600.729,594.136C1601.147,597.692 1602.001,600.983 1603.294,604.009C1605.203,608.481 1608.117,612.023 1612.036,614.636C1615.955,617.249 1620.879,618.555 1626.808,618.555C1632.737,618.555 1637.435,617.148 1640.902,614.334C1644.369,611.521 1646.755,608.104 1648.062,604.084L1665.245,604.084C1663.939,609.913 1661.552,615.013 1658.086,619.384C1654.619,623.755 1650.247,627.172 1644.972,629.634C1639.696,632.096 1633.641,633.327 1626.808,633.327C1618.066,633.327 1610.479,631.443 1604.047,627.674C1597.616,623.906 1592.617,618.655 1589.049,611.923C1585.482,605.19 1583.698,597.502 1583.698,588.86C1583.698,580.118 1585.482,572.38 1589.049,565.647C1592.617,558.914 1597.616,553.639 1604.047,549.82C1610.479,546.001 1618.066,544.092 1626.808,544.092C1632.536,544.092 1637.912,545.198 1642.937,547.408C1647.961,549.619 1652.282,552.885 1655.9,557.206C1659.518,561.527 1662.206,566.778 1663.964,572.958C1665.723,579.138 1666.15,586.197 1665.245,594.136L1600.729,594.136ZM1601.203,580.419L1649.373,580.419C1649.117,577.447 1648.429,574.658 1647.308,572.053C1645.6,568.084 1643.037,564.894 1639.621,562.482C1636.204,560.07 1631.933,558.864 1626.808,558.864C1620.879,558.864 1615.955,560.171 1612.036,562.783C1608.117,565.396 1605.203,568.963 1603.294,573.485C1602.376,575.658 1601.68,577.969 1601.203,580.419Z" style="fill:rgb(39,39,42);"/>
            </g>
        </g>
        <g transform="matrix(2.355225,0,0,2.355225,802.140198,-637.218126)">
            <g transform="matrix(0.424588,0,0,0.424588,-340.578989,270.55508)">
                <path d="M1698.407,586.599L1698.407,630.915L1682.128,630.915L1682.128,546.504L1698.407,546.504L1698.407,560.58C1699.118,558.738 1700.048,556.935 1701.196,555.171C1703.256,552.006 1706.321,549.368 1710.39,547.258C1714.46,545.147 1719.862,544.092 1726.594,544.092L1726.594,560.372C1720.665,560.372 1715.591,561.175 1711.37,562.783C1707.15,564.391 1703.934,567.079 1701.723,570.848C1699.512,574.616 1698.407,579.866 1698.407,586.599Z" style="fill:rgb(39,39,42);"/>
            </g>
        </g>
        <g transform="matrix(2.355225,0,0,2.355225,802.140198,-637.218126)">
            <g transform="matrix(0.424588,0,0,0.424588,-340.578989,270.55508)">
                <path d="M1796.686,616.88C1795.773,619.03 1794.542,621.121 1792.993,623.152C1790.732,626.117 1787.642,628.554 1783.723,630.463C1779.804,632.372 1774.829,633.327 1768.8,633.327C1763.374,633.327 1758.525,632.222 1754.254,630.011C1749.983,627.8 1746.617,624.132 1744.155,619.007C1741.693,613.882 1740.462,607.049 1740.462,598.507L1740.462,546.504L1756.59,546.504L1756.59,596.548C1756.59,601.07 1757.068,605.014 1758.022,608.38C1758.977,611.747 1760.635,614.385 1762.997,616.294C1765.358,618.203 1768.699,619.158 1773.021,619.158C1777.04,619.158 1780.859,617.977 1784.476,615.616C1788.094,613.254 1791.033,609.812 1793.294,605.29C1795.555,600.768 1796.686,595.191 1796.686,588.559L1796.686,546.504L1812.965,546.504L1812.965,630.915L1796.686,630.915L1796.686,616.88Z" style="fill:rgb(39,39,42);"/>
            </g>
        </g>
        <g transform="matrix(2.355225,0,0,2.355225,802.140198,-637.218126)">
            <g transform="matrix(0.424588,0,0,0.424588,-340.578989,270.55508)">
                <path d="M1554.456,493.29L1490.996,493.29L1490.996,387.776L1507.577,387.776L1507.577,478.819L1554.456,478.819L1554.456,493.29Z" style="fill:rgb(39,39,42);"/>
            </g>
        </g>
    </g>
</svg>
